<svg xmlns="http://www.w3.org/2000/svg" version="1.1" xmlns:xlink="http://www.w3.org/1999/xlink" xmlns:svgjs="http://svgjs.com/svgjs" width="512" height="512" x="0" y="0" viewBox="0 0 512 512" style="enable-background:new 0 0 512 512" xml:space="preserve" class=""><g>
<g>
	<path style="stroke-width:15;stroke-linecap:round;stroke-linejoin:round;stroke-miterlimit:10;" d="
		M7.5,181v-75c0-16.569,13.431-30,30-30h437c16.569,0,30,13.431,30,30v300c0,16.569-13.431,30-30,30h-437c-16.569,0-30-13.431-30-30
		V211" fill="none" stroke="#0b4d9d" stroke-width="15" stroke-linecap="round" stroke-linejoin="round" stroke-miterlimit="10" data-original="#000000" class=""></path>
	
		<polyline style="stroke-width:15;stroke-linecap:round;stroke-linejoin:round;stroke-miterlimit:10;" points="
		67.5,296.3 67.5,136 444.5,136 444.5,376 67.5,376 67.5,326.3 	" fill="none" stroke="#0b4d9d" stroke-width="15" stroke-linecap="round" stroke-linejoin="round" stroke-miterlimit="10" data-original="#000000" class=""></polyline>
	<path style="stroke-width:15;stroke-linecap:round;stroke-linejoin:round;stroke-miterlimit:10;" d="
		M97.5,185.7v140.6c0,10.88,8.82,19.7,19.7,19.7c10.88,0,19.7-8.82,19.7-19.7V185.7c0-10.88-8.82-19.7-19.7-19.7
		C106.32,166,97.5,174.82,97.5,185.7z" fill="none" stroke="#0b4d9d" stroke-width="15" stroke-linecap="round" stroke-linejoin="round" stroke-miterlimit="10" data-original="#000000" class=""></path>
	<path style="stroke-width:15;stroke-linecap:round;stroke-linejoin:round;stroke-miterlimit:10;" d="
		M166.9,185.7v140.6c0,10.88,8.82,19.7,19.7,19.7c10.88,0,19.7-8.82,19.7-19.7V185.7c0-10.88-8.82-19.7-19.7-19.7
		C175.72,166,166.9,174.82,166.9,185.7z" fill="none" stroke="#0b4d9d" stroke-width="15" stroke-linecap="round" stroke-linejoin="round" stroke-miterlimit="10" data-original="#000000" class=""></path>
	<path style="stroke-width:15;stroke-linecap:round;stroke-linejoin:round;stroke-miterlimit:10;" d="
		M236.3,185.7v140.6c0,10.88,8.82,19.7,19.7,19.7c10.88,0,19.7-8.82,19.7-19.7V185.7c0-10.88-8.82-19.7-19.7-19.7
		C245.12,166,236.3,174.82,236.3,185.7z" fill="none" stroke="#0b4d9d" stroke-width="15" stroke-linecap="round" stroke-linejoin="round" stroke-miterlimit="10" data-original="#000000" class=""></path>
	<path style="stroke-width:15;stroke-linecap:round;stroke-linejoin:round;stroke-miterlimit:10;" d="
		M305.7,185.7v140.6c0,10.88,8.82,19.7,19.7,19.7c10.88,0,19.7-8.82,19.7-19.7V185.7c0-10.88-8.82-19.7-19.7-19.7
		C314.52,166,305.7,174.82,305.7,185.7z" fill="none" stroke="#0b4d9d" stroke-width="15" stroke-linecap="round" stroke-linejoin="round" stroke-miterlimit="10" data-original="#000000" class=""></path>
	<path style="stroke-width:15;stroke-linecap:round;stroke-linejoin:round;stroke-miterlimit:10;" d="
		M375.1,185.7v140.6c0,10.88,8.82,19.7,19.7,19.7c10.88,0,19.7-8.82,19.7-19.7V185.7c0-10.88-8.82-19.7-19.7-19.7
		C383.92,166,375.1,174.82,375.1,185.7z" fill="none" stroke="#0b4d9d" stroke-width="15" stroke-linecap="round" stroke-linejoin="round" stroke-miterlimit="10" data-original="#000000" class=""></path>
	<path style="stroke-width:15;stroke-linecap:round;stroke-linejoin:round;stroke-miterlimit:10;" d="
		M136.9,215.7c0-10.88-8.82-19.7-19.7-19.7c-10.88,0-19.7,8.82-19.7,19.7" fill="none" stroke="#0b4d9d" stroke-width="15" stroke-linecap="round" stroke-linejoin="round" stroke-miterlimit="10" data-original="#000000" class=""></path>
	<path style="stroke-width:15;stroke-linecap:round;stroke-linejoin:round;stroke-miterlimit:10;" d="
		M206.3,215.7c0-10.88-8.82-19.7-19.7-19.7c-10.88,0-19.7,8.82-19.7,19.7" fill="none" stroke="#0b4d9d" stroke-width="15" stroke-linecap="round" stroke-linejoin="round" stroke-miterlimit="10" data-original="#000000" class=""></path>
	<path style="stroke-width:15;stroke-linecap:round;stroke-linejoin:round;stroke-miterlimit:10;" d="
		M275.7,215.7c0-10.88-8.82-19.7-19.7-19.7c-10.88,0-19.7,8.82-19.7,19.7" fill="none" stroke="#0b4d9d" stroke-width="15" stroke-linecap="round" stroke-linejoin="round" stroke-miterlimit="10" data-original="#000000" class=""></path>
	<path style="stroke-width:15;stroke-linecap:round;stroke-linejoin:round;stroke-miterlimit:10;" d="
		M345.1,215.7c0-10.88-8.82-19.7-19.7-19.7c-10.88,0-19.7,8.82-19.7,19.7" fill="none" stroke="#0b4d9d" stroke-width="15" stroke-linecap="round" stroke-linejoin="round" stroke-miterlimit="10" data-original="#000000" class=""></path>
	<path style="stroke-width:15;stroke-linecap:round;stroke-linejoin:round;stroke-miterlimit:10;" d="
		M414.5,215.7c0-10.88-8.82-19.7-19.7-19.7c-10.88,0-19.7,8.82-19.7,19.7" fill="none" stroke="#0b4d9d" stroke-width="15" stroke-linecap="round" stroke-linejoin="round" stroke-miterlimit="10" data-original="#000000" class=""></path>
</g>















</g></svg>