<svg xmlns="http://www.w3.org/2000/svg" version="1.1" xmlns:xlink="http://www.w3.org/1999/xlink" xmlns:svgjs="http://svgjs.com/svgjs" width="512" height="512" x="0" y="0" viewBox="0 0 480 480" style="enable-background:new 0 0 512 512" xml:space="preserve" class=""><g><path d="m472 0h-464c-4.417969 0-8 3.582031-8 8v32c0 4.417969 3.582031 8 8 8h8v24c0 1.730469.5625 3.414062 1.601562 4.800781l22.398438 29.863281v301.335938h-32c-4.417969 0-8 3.582031-8 8v56c0 4.417969 3.582031 8 8 8h464c4.417969 0 8-3.582031 8-8v-56c0-4.417969-3.582031-8-8-8h-32v-301.335938l22.398438-29.863281c1.039062-1.386719 1.601562-3.070312 1.601562-4.800781v-24h8c4.417969 0 8-3.582031 8-8v-32c0-4.417969-3.582031-8-8-8zm-432 464h-24v-40h24zm96 0h-80v-40h80zm-80-120v-48h32v-16h-32v-48h32v-16h-32v-48h48v240h-48v-48h32v-16zm304-176v240h-69.664062c1.601562-1.238281 3.25-2.328125 4.929687-3.71875 15.898437-13.835938 24.9375-33.941406 24.734375-55.015625-.285156-14.886719-2.832031-29.640625-7.550781-43.761719-1.753907-6.230468-3.570313-12.671875-4.890625-18.984375-2.019532-5.839843-1.488282-12.257812 1.457031-17.6875 2.363281-2.257812 3.117187-5.726562 1.898437-8.761719-1.214843-3.035156-4.15625-5.023437-7.425781-5.023437-14.703125.398437-27.828125 9.328125-33.601562 22.855469-1.34375 3.433594-2.386719 6.976562-3.109375 10.59375-1.53125 6.671875-2.402344 9.734375-6.785156 12.296875-2.707032 1.675781-6.097657 1.800781-8.921876.328125-2.542968-2-3.890624-5.15625-3.582031-8.378906.792969-4.496094 2.75-8.710938 5.679688-12.214844 1.230469-1.839844 2.472656-3.695313 3.601562-5.597656 5.972657-10.175782 7.3125-22.414063 3.6875-33.640626-3.097656-9.464843-7.492187-18.457031-13.058593-26.714843-2.839844-4.445313-6.050782-8.648438-9.597657-12.558594-1.273437-1.285156-2.636719-2.476563-4.082031-3.566406-.855469-.664063-2.222656-1.753907-2.789062-2.328125-2.089844-3.707032-6.714844-5.132813-10.527344-3.238282-3.8125 1.890626-5.476563 6.433594-3.785156 10.339844 6.957031 15.875-1.601563 35.152344-11 46.847656-4.5625 5.65625-9.539063 11.082032-14.402344 16.328126-14.167969 15.425781-28.800782 31.402343-34.472656 54.984374-5.742188 22.042969-2.78125 45.449219 8.265624 65.371094 4.835938 8.191406 11.179688 15.402344 18.6875 21.246094h-63.695312v-240zm-208-16v-40h80v40zm96 0v-40h80v40zm-3.640625 193.34375c-2.6875-1.789062-6.183594-1.789062-8.871094 0-1.089843.753906-27.566406 18.695312-27.566406 46.65625-.019531 4.085938.40625 8.160156 1.269531 12.152344-12.78125-4.742188-23.527344-13.769532-30.398437-25.542969-8.9375-16.339844-11.253907-35.488281-6.472657-53.488281 4.671876-19.554688 17.320313-33.3125 30.703126-47.890625 4.984374-5.421875 10.136718-11.046875 15.023437-17.09375 8.449219-10.425781 14.089844-22.84375 16.386719-36.066407 4.492187 6.726563 8.0625 14.023438 10.613281 21.699219 2.410156 6.996094 1.628906 14.695313-2.144531 21.0625-.949219 1.601563-2.015625 3.199219-3.070313 4.800781-4.625 5.808594-7.519531 12.804688-8.359375 20.183594-.679687 9 3.476563 17.683594 10.910156 22.800782 7.867188 4.757812 17.71875 4.777343 25.601563.046874 8.015625-4.910156 13.3125-13.25 14.351563-22.59375.527343-2.726562 1.289062-5.402343 2.28125-8 1.304687-3.226562 3.417968-6.066406 6.136718-8.246093-.265625 4.6875.109375 9.390625 1.117188 13.976562 1.433594 6.832031 3.3125 13.535157 5.136718 20 4.265626 12.589844 6.613282 25.75 6.960938 39.039063.292969 16.433594-6.617188 32.171875-18.914062 43.082031-4.367188 3.679687-9.050782 6.976563-13.992188 9.847656.574219-3.226562.859375-6.496093.859375-9.769531 0-27.960938-26.433594-45.902344-27.5625-46.65625zm11.5625 46.65625c.191406 5.59375-1.175781 11.132812-3.945313 16h-24.160156c-2.789062-4.855469-4.140625-10.40625-3.894531-16 1.015625-11.707031 6.800781-22.480469 16-29.792969 9.191406 7.316407 14.976563 18.089844 16 29.792969zm-119.921875-240h-80v-40h80zm96 312h-80v-40h80zm96 0h-80v-40h80zm96 0h-80v-40h80zm0-248h-32v16h32v48h-32v16h32v48h-32v16h32v48h-48v-240h48zm0-64h-80v-40h80zm40 272v40h-24v-40zm-16-354.664062-20 26.664062h-376l-20-26.664062v-21.335938h416zm16-37.335938h-448v-16h448zm0 0" fill="#0b4d9d" data-original="#000000" class=""></path><path d="m64 64h16v16h-16zm0 0" fill="#0b4d9d" data-original="#000000" class=""></path><path d="m96 64h64v16h-64zm0 0" fill="#0b4d9d" data-original="#000000" class=""></path></g></svg>