<svg xmlns="http://www.w3.org/2000/svg" viewBox="0 0 231.28 267.39"><defs><style>.cls-1{fill:#fff;}.cls-2{fill:#5496d0;}.cls-3{fill:#0b4d9d;}</style></defs><g id="Layer_2" data-name="Layer 2"><g id="Layer_1-2" data-name="Layer 1"><path class="cls-1" d="M138.62,69.81H92.05L68.77,110.14l23.28,40.32h46.57l23.28-40.32Zm-23.29,59.9a19.58,19.58,0,1,1,19.58-19.57A19.57,19.57,0,0,1,115.33,129.71Z"/><path class="cls-2" d="M17.65,190.85s22.71,5.41,42.66,2.77c36.1-4.78,71-24.47,100.55-22.68s52.8,19.91,52.8,19.91-25.95-4.69-60.26,4.56c-25.78,7-55.79,21.18-85.33,18.2S26.3,199.43,17.65,190.85Z"/><path class="cls-3" d="M39.62,190a100.92,100.92,0,0,0,20.22-.35c11.77-1.56,23.47-4.75,34.94-8.27a74.15,74.15,0,1,1,72.64-124l25.43-25.43A110.08,110.08,0,1,0,39.62,190Z"/><path class="cls-3" d="M154.66,150.46h22.93a74.57,74.57,0,0,1-14.77,16.62c15.5,1.27,29.12,6.67,38.68,11.63a110,110,0,0,0,22.55-50.59,111.74,111.74,0,0,0,1.27-11.39c0-.75.08-1.49.11-2.24h-50Z"/><path class="cls-2" d="M17.65,190.45s22.71,5.4,42.66,2.76c36.1-4.77,71-24.46,100.55-22.67s52.8,19.91,52.8,19.91-25.95-4.69-60.26,4.55c-25.78,6.95-55.79,21.19-85.33,18.2S26.3,199,17.65,190.45Z"/><path class="cls-2" d="M217.22,90c-1.15-14.48-14.77-34.13-34.41-41.94,7.44,23.63.52,31.48.29,42.75s8.34,18.84,18,18.08A17.56,17.56,0,0,0,217.22,90Zm-15.33,15a17.44,17.44,0,0,1-2.66.21,12.33,12.33,0,0,1-9.51-4c-3.47-3.94-3.72-9-3.31-12.5a1.78,1.78,0,0,1,2-1.58,1.8,1.8,0,0,1,1.58,2c-.32,2.8-.16,6.76,2.44,9.72s6.73,2.92,8.91,2.57a1.8,1.8,0,1,1,.56,3.55Z"/><path class="cls-1" d="M68.53,231.33a2.39,2.39,0,0,0-1-1,3.06,3.06,0,0,0-1.44-.34,3.11,3.11,0,0,0-1.59.4,2.87,2.87,0,0,0-1.1,1.14,3.6,3.6,0,0,0-.39,1.71,3.66,3.66,0,0,0,.39,1.72,2.81,2.81,0,0,0,1.1,1.14,3.11,3.11,0,0,0,1.59.4,2.83,2.83,0,0,0,2-.67A3,3,0,0,0,69,234H65.62v-1.18h5V234a4.53,4.53,0,0,1-.75,1.93,4.33,4.33,0,0,1-1.57,1.4,4.38,4.38,0,0,1-2.14.53,4.68,4.68,0,0,1-2.32-.59,4.36,4.36,0,0,1-1.66-1.64,4.84,4.84,0,0,1,0-4.74,4.46,4.46,0,0,1,1.67-1.64,4.9,4.9,0,0,1,4.87.12,4,4,0,0,1,1.62,2Z"/><path class="cls-1" d="M82.31,229.93v2.64h3.11v1.21H82.31v2.76h3.5v1.2h-5v-9h5v1.2Z"/><path class="cls-1" d="M103.82,237.74h-1.47L97.9,231v6.72H96.43v-9H97.9l4.45,6.71v-6.71h1.47Z"/><path class="cls-1" d="M116.05,229.93v2.64h3.11v1.21h-3.11v2.76h3.49v1.2h-5v-9h5v1.2Z"/><path class="cls-1" d="M134.84,237.74l-2.07-3.6h-1.13v3.6h-1.48v-9h3.11a3.92,3.92,0,0,1,1.76.36,2.53,2.53,0,0,1,1.07,1,2.63,2.63,0,0,1,.36,1.36A2.7,2.7,0,0,1,136,233a2.59,2.59,0,0,1-1.58,1l2.23,3.73Zm-3.2-4.78h1.63a1.74,1.74,0,0,0,1.25-.41,1.51,1.51,0,0,0,.42-1.12,1.46,1.46,0,0,0-.41-1.09,1.8,1.8,0,0,0-1.26-.4h-1.63Z"/><path class="cls-1" d="M152.58,235.9h-3.77l-.64,1.84h-1.55l3.23-9h1.71l3.22,9h-1.55Zm-.41-1.2-1.47-4.19-1.47,4.19Z"/><path class="cls-1" d="M166.47,236.55h3v1.19H165v-9h1.48Z"/><path class="cls-1" d="M12.45,258.26a5.07,5.07,0,0,1-2.11,2A7.54,7.54,0,0,1,6.8,261H4.2v6.19H0V250H6.8a7.67,7.67,0,0,1,3.49.72,4.92,4.92,0,0,1,2.14,2,5.76,5.76,0,0,1,.71,2.87A5.52,5.52,0,0,1,12.45,258.26Zm-4.17-1.14a2.45,2.45,0,0,0,0-3.19,2.51,2.51,0,0,0-1.8-.57H4.2v4.33H6.48A2.51,2.51,0,0,0,8.28,257.12Z"/><path class="cls-1" d="M22.47,264H28v3.25H18.27V250h4.2Z"/><path class="cls-1" d="M37.06,250v10.32a3.39,3.39,0,0,0,.77,2.38,2.84,2.84,0,0,0,2.23.84,2.94,2.94,0,0,0,2.26-.84,3.35,3.35,0,0,0,.79-2.38V250h4.2v10.3a7.27,7.27,0,0,1-1,3.9,6.2,6.2,0,0,1-2.64,2.41,8.26,8.26,0,0,1-3.69.81,8.13,8.13,0,0,1-3.65-.8,5.9,5.9,0,0,1-2.54-2.41,7.7,7.7,0,0,1-.94-3.91V250Z"/><path class="cls-1" d="M72.73,250v17.25h-4.2V256.88l-3.86,10.34H61.28L57.4,256.85v10.37H53.2V250h5L63,261.91,67.79,250Z"/><path class="cls-1" d="M91.54,259.86a4.52,4.52,0,0,1-.6,6.09,6.39,6.39,0,0,1-4.21,1.27h-8V250h7.76a6.31,6.31,0,0,1,4.11,1.21,4.35,4.35,0,0,1,.69,5.79,4.06,4.06,0,0,1-2.12,1.4A4,4,0,0,1,91.54,259.86ZM82.9,257h2.75a2.38,2.38,0,0,0,1.58-.46,1.61,1.61,0,0,0,.56-1.33,1.66,1.66,0,0,0-.56-1.35,2.33,2.33,0,0,0-1.58-.47H82.9Zm4.73,6.4A1.71,1.71,0,0,0,88.2,262a1.76,1.76,0,0,0-.6-1.42,2.43,2.43,0,0,0-1.66-.52h-3v3.81H86A2.51,2.51,0,0,0,87.63,263.35Z"/><path class="cls-1" d="M102,250v17.25h-4.2V250Z"/><path class="cls-1" d="M123.45,267.22h-4.2l-7-10.64v10.64H108V250h4.2l7,10.69V250h4.2Z"/><path class="cls-1" d="M140.89,255.43a3.16,3.16,0,0,0-1.34-1.32,4.4,4.4,0,0,0-2.05-.45,4.2,4.2,0,0,0-3.27,1.34,5.06,5.06,0,0,0-1.23,3.57,5.13,5.13,0,0,0,1.29,3.72,4.72,4.72,0,0,0,3.55,1.34,4.25,4.25,0,0,0,2.62-.79,4.44,4.44,0,0,0,1.56-2.26h-5.33v-3.09h9.14v3.91a8.35,8.35,0,0,1-4.42,5.1,8.75,8.75,0,0,1-3.89.84,9.11,9.11,0,0,1-4.55-1.12,7.85,7.85,0,0,1-3.12-3.11,9,9,0,0,1-1.12-4.54,9.17,9.17,0,0,1,1.12-4.56,8,8,0,0,1,3.11-3.12,9.14,9.14,0,0,1,4.54-1.11,8.84,8.84,0,0,1,5.22,1.5,7,7,0,0,1,2.81,4.15Z"/><path class="cls-1" d="M171.72,258.26a5.1,5.1,0,0,1-2.12,2,7.52,7.52,0,0,1-3.53.76h-2.61v6.19h-4.2V250h6.81a7.65,7.65,0,0,1,3.48.72,4.92,4.92,0,0,1,2.14,2,5.76,5.76,0,0,1,.71,2.87A5.62,5.62,0,0,1,171.72,258.26Zm-4.18-1.14a2.45,2.45,0,0,0,0-3.19,2.48,2.48,0,0,0-1.79-.57h-2.29v4.33h2.29A2.48,2.48,0,0,0,167.54,257.12Z"/><path class="cls-1" d="M186.33,267.22l-3.59-6.51h-1v6.51h-4.2V250h7.05a7.7,7.7,0,0,1,3.47.72,4.82,4.82,0,0,1,2.15,1.95,5.41,5.41,0,0,1,.71,2.76,5.1,5.1,0,0,1-1,3.07,5.22,5.22,0,0,1-2.86,1.92l4,6.83Zm-4.59-9.48h2.6a2.36,2.36,0,0,0,1.73-.57,2.12,2.12,0,0,0,.58-1.6,2,2,0,0,0-.58-1.54,2.36,2.36,0,0,0-1.73-.57h-2.6Z"/><path class="cls-1" d="M200.19,266.26A8.4,8.4,0,0,1,197,263.1a9.29,9.29,0,0,1,0-9.1,8.42,8.42,0,0,1,3.21-3.14,9.37,9.37,0,0,1,8.92,0A8.23,8.23,0,0,1,212.3,254a9.4,9.4,0,0,1,0,9.1,8.35,8.35,0,0,1-3.19,3.16,9,9,0,0,1-4.45,1.13A9.07,9.07,0,0,1,200.19,266.26Zm7.77-4.08a6,6,0,0,0,0-7.28,4.26,4.26,0,0,0-3.31-1.36,4.31,4.31,0,0,0-3.33,1.35,6,6,0,0,0,0,7.3,4.29,4.29,0,0,0,3.33,1.37A4.24,4.24,0,0,0,208,262.18Z"/><path class="cls-1" d="M221.6,266.77a5.39,5.39,0,0,1-2.39-1.81,5,5,0,0,1-1-2.9h4.47a2.22,2.22,0,0,0,.66,1.46,2.12,2.12,0,0,0,1.48.5,2.28,2.28,0,0,0,1.47-.43,1.42,1.42,0,0,0,.54-1.19,1.38,1.38,0,0,0-.43-1,3.42,3.42,0,0,0-1-.69,18,18,0,0,0-1.78-.62,17.86,17.86,0,0,1-2.73-1,5,5,0,0,1-1.82-1.52,4.23,4.23,0,0,1-.76-2.63,4.53,4.53,0,0,1,1.74-3.77,8.36,8.36,0,0,1,9.14,0,4.88,4.88,0,0,1,1.87,3.8h-4.55a1.76,1.76,0,0,0-.61-1.32,2.17,2.17,0,0,0-1.45-.48,1.81,1.81,0,0,0-1.23.41,1.57,1.57,0,0,0,.32,2.47,13.06,13.06,0,0,0,2.46,1,23.74,23.74,0,0,1,2.71,1.08,5.29,5.29,0,0,1,1.81,1.5,4.07,4.07,0,0,1,.76,2.53,5,5,0,0,1-.75,2.68,5.3,5.3,0,0,1-2.17,1.92,7.54,7.54,0,0,1-3.37.71A8.87,8.87,0,0,1,221.6,266.77Z"/><path class="cls-2" d="M105.43,178.05c17.55-5.57,34.23-10.84,49.91-11.19a64.47,64.47,0,0,0,15.22-12.8s-17.32,8.13-27,8.79c-23.35,1.58-31.56-12.39-55.47-8.79-8.4,1.26-15.32,5.54-19.55,8.8a70.35,70.35,0,0,0,32.92,16.44Z"/></g></g></svg>