<svg xmlns="http://www.w3.org/2000/svg" version="1.1" xmlns:xlink="http://www.w3.org/1999/xlink" xmlns:svgjs="http://svgjs.com/svgjs" width="512" height="512" x="0" y="0" viewBox="0 0 480 480" style="enable-background:new 0 0 512 512" xml:space="preserve" class=""><g><path d="m312 400h16v16h-16zm0 0" fill="#0b4d9d" data-original="#000000" class=""></path><path d="m272 112h16v-16h-24c-4.417969 0-8 3.582031-8 8v40h16zm0 0" fill="#0b4d9d" data-original="#000000" class=""></path><path d="m256 160h16v16h-16zm0 0" fill="#0b4d9d" data-original="#000000" class=""></path><path d="m0 136c0 4.417969 3.582031 8 8 8h16v40c.027344 22.082031 17.917969 39.972656 40 40h160v216c0 4.417969 3.582031 8 8 8h8v24c0 4.417969 3.582031 8 8 8h32c4.417969 0 8-3.582031 8-8v-24h64v24c0 4.417969 3.582031 8 8 8h32c4.417969 0 8-3.582031 8-8v-24h8c4.417969 0 8-3.582031 8-8v-312h16v16h16v-24c0-4.417969-3.582031-8-8-8h-24v-40c0-4.417969-3.582031-8-8-8h-16v-16h-16v16h-17.753906l-6.484375-25.945312c-.894531-3.558594-4.09375-6.054688-7.761719-6.054688h-48c-3.667969 0-6.867188 2.496094-7.761719 6.054688l-6.484375 25.945312h-17.753906v-16h-16v16h-16c-4.417969 0-8 3.582031-8 8v104h-152v-32h32c4.417969 0 8-3.582031 8-8v-128c0-4.417969-3.582031-8-8-8h-96c-4.417969 0-8 3.582031-8 8zm272 328h-16v-16h16zm24-128v-16h48v16zm32 16v16h-16v-16zm32 32v48h-80v-48zm24 80h-16v-16h16zm-81.753906-416h35.507812l4 16h-43.507812zm-62.246094 32h160v32h-16v-16h-16v48h16v-16h16v304h-24v-56c0-4.417969-3.582031-8-8-8h-24v-16h8c4.417969 0 8-3.582031 8-8v-32c0-4.417969-3.582031-8-8-8h-64c-4.417969 0-8 3.582031-8 8v32c0 4.417969 3.582031 8 8 8h8v16h-24c-4.417969 0-8 3.582031-8 8v56h-24zm-176 112h160v16h-160c-13.253906 0-24-10.746094-24-24v-40h16v40c0 4.417969 3.582031 8 8 8zm-48-176h80v112h-80zm0 0" fill="#0b4d9d" data-original="#000000" class=""></path><path d="m32 32h32v16h-32zm0 0" fill="#0b4d9d" data-original="#000000" class=""></path><path d="m32 64h32v16h-32zm0 0" fill="#0b4d9d" data-original="#000000" class=""></path><path d="m32 96h32v16h-32zm0 0" fill="#0b4d9d" data-original="#000000" class=""></path><path d="m190.65625 156.441406 16-24c1.792969-2.691406 1.792969-6.191406 0-8.882812l-13.054688-19.558594 13.039063-19.566406-13.3125-8.882813-16 24c-1.789063 2.6875-1.789063 6.1875 0 8.875l13.070313 19.574219-13.039063 19.535156zm0 0" fill="#0b4d9d" data-original="#000000" class=""></path><path d="m150.65625 156.441406 16-24c1.792969-2.691406 1.792969-6.191406 0-8.882812l-13.054688-19.558594 13.039063-19.566406-13.3125-8.882813-16 24c-1.789063 2.6875-1.789063 6.1875 0 8.875l13.070313 19.574219-13.039063 19.535156zm0 0" fill="#0b4d9d" data-original="#000000" class=""></path><path d="m256 192h16v80h-16zm0 0" fill="#0b4d9d" data-original="#000000" class=""></path></g></svg>