<svg width="220" height="213" viewBox="0 0 220 213" fill="none" xmlns="http://www.w3.org/2000/svg">
<path d="M133.61 69.4617H87.2636L64.0906 109.613L87.2636 149.751H133.61L156.783 109.613L133.61 69.4617ZM110.429 129.099C106.576 129.099 102.808 127.956 99.6041 125.815C96.3998 123.674 93.9023 120.631 92.4276 117.07C90.9528 113.51 90.5669 109.592 91.3188 105.812C92.0706 102.032 93.9264 98.5605 96.6514 95.8354C99.3764 93.1104 102.848 91.2546 106.628 90.5028C110.408 89.751 114.326 90.1368 117.886 91.6116C121.446 93.0864 124.49 95.5838 126.631 98.7881C128.772 101.992 129.915 105.76 129.915 109.613C129.915 114.781 127.862 119.737 124.207 123.392C120.553 127.046 115.597 129.099 110.429 129.099Z" fill="#ffffff"/>
<path d="M13.2117 189.953C13.2117 189.953 35.8118 195.331 55.6764 192.703C91.6032 187.948 126.348 168.355 155.744 170.131C185.14 171.907 208.299 189.953 208.299 189.953C208.299 189.953 182.469 185.277 148.318 194.486C122.66 201.403 92.7919 215.568 63.396 212.596C34 209.624 21.8263 198.482 13.2117 189.953Z" fill="#5496D0"/>
<path d="M35.0814 189.101C41.7837 189.658 48.525 189.54 55.2038 188.75C66.912 187.203 78.563 184.024 89.9848 180.522C79.1885 177.401 69.2474 171.856 60.9198 164.31C52.5923 156.763 46.0981 147.414 41.9328 136.977C37.7674 126.539 36.0408 115.287 36.8847 104.081C37.7286 92.8744 41.1207 82.0086 46.8023 72.3122C52.4838 62.6159 60.3047 54.3452 69.6686 48.1309C79.0324 41.9166 89.6918 37.9228 100.834 36.4543C111.976 34.9857 123.306 36.0811 133.96 39.6569C144.614 43.2328 154.311 49.1945 162.311 57.0876L187.618 31.7806C167.123 11.3984 139.384 -0.029618 110.48 5.76508e-05C50.0336 5.76508e-05 0.866102 49.1747 0.866102 109.614C0.858771 124.494 3.88963 139.219 9.773 152.887C15.6564 166.555 24.2684 178.878 35.0814 189.101Z" fill="#0B4D9D"/>
<path d="M149.571 149.751H172.394C168.343 155.965 163.388 161.54 157.692 166.293C173.124 167.553 186.673 172.931 196.182 177.865C202.977 169.353 208.467 159.878 212.474 149.751C215.308 142.579 217.37 135.125 218.625 127.516C219.241 123.762 219.664 119.978 219.893 116.18C219.935 115.435 219.971 114.691 220 113.946H170.245L149.571 149.751Z" fill="#0B4D9D"/>
<path d="M13.2117 189.552C13.2117 189.552 35.8118 194.923 55.6764 192.302C91.6032 187.547 126.348 167.954 155.744 169.73C185.14 171.506 208.299 189.552 208.299 189.552C208.299 189.552 182.469 184.876 148.318 194.078C122.66 200.995 92.7919 215.167 63.396 212.195C34 209.223 21.8263 198.081 13.2117 189.552Z" fill="#5496D0"/>
<path d="M211.836 89.6056C210.683 75.1905 197.142 55.641 177.592 47.8641C184.997 71.3809 178.115 79.1935 177.886 90.4148C177.657 101.636 186.179 109.162 195.789 108.403C198.077 108.223 200.307 107.594 202.352 106.552C204.397 105.51 206.217 104.075 207.707 102.329C209.197 100.584 210.329 98.5614 211.037 96.3782C211.746 94.1951 212.017 91.8937 211.836 89.6056ZM196.583 104.586C195.709 104.723 194.826 104.793 193.941 104.794C191.148 104.794 187.31 104.078 184.467 100.856C181.015 96.9242 180.772 91.9186 181.173 88.4097C181.227 87.9349 181.468 87.5011 181.842 87.2036C182.216 86.9062 182.693 86.7695 183.167 86.8236C183.642 86.8777 184.076 87.1182 184.373 87.4922C184.671 87.8663 184.808 88.3431 184.753 88.8179C184.438 91.6107 184.603 95.5493 187.188 98.4924C189.773 101.436 193.884 101.393 196.046 101.049C196.515 100.974 196.995 101.088 197.38 101.367C197.765 101.646 198.023 102.066 198.098 102.535C198.173 103.004 198.059 103.484 197.78 103.868C197.501 104.253 197.081 104.511 196.612 104.586H196.583Z" fill="#5496D0"/>
<path d="M100.576 177.206C118.042 171.664 134.648 166.415 150.252 166.071C155.929 162.631 161.04 158.334 165.404 153.331C165.404 153.331 148.161 161.423 138.522 162.082C115.292 163.658 107.121 149.751 83.3179 153.331C74.961 154.592 68.0721 158.845 63.8686 162.089C73.1448 170.352 84.4518 176 96.6302 178.452L100.576 177.206Z" fill="#5496D0"/>
</svg>
