<svg xmlns="http://www.w3.org/2000/svg" viewBox="0 0 383.67 114.9"><defs><style>.cls-1{fill:#343434;}.cls-2{fill:#5496d0;}.cls-3{fill:#0b4d9d;}</style></defs><g id="Layer_2" data-name="Layer 2"><g id="Layer_1-2" data-name="Layer 1"><path class="cls-1" d="M151.38,5.63a4,4,0,0,0-1.62-1.7,4.88,4.88,0,0,0-2.39-.57,5.17,5.17,0,0,0-2.65.67,4.63,4.63,0,0,0-1.82,1.9,5.9,5.9,0,0,0-.66,2.84,6,6,0,0,0,.66,2.86,4.57,4.57,0,0,0,1.82,1.9,5.17,5.17,0,0,0,2.65.67,4.67,4.67,0,0,0,3.25-1.12,4.91,4.91,0,0,0,1.53-3h-5.62v-2h8.25V10a7.4,7.4,0,0,1-7.41,6.42,7.77,7.77,0,0,1-3.86-1,7.26,7.26,0,0,1-2.77-2.73,7.64,7.64,0,0,1-1-3.94,7.66,7.66,0,0,1,1-3.94,7.29,7.29,0,0,1,2.78-2.73,8.15,8.15,0,0,1,8.1.2,6.63,6.63,0,0,1,2.71,3.33Z"/><path class="cls-1" d="M174.3,3.3V7.69h5.17v2H174.3v4.59h5.82v2h-8.27v-15h8.27v2Z"/><path class="cls-1" d="M210.1,16.29h-2.46L200.25,5.11V16.29h-2.46v-15h2.46l7.39,11.17V1.29h2.46Z"/><path class="cls-1" d="M230.44,3.3V7.69h5.17v2h-5.17v4.59h5.82v2H228v-15h8.28v2Z"/><path class="cls-1" d="M261.71,16.29l-3.45-6h-1.88v6h-2.45v-15h5.17a6.47,6.47,0,0,1,2.92.6,4.21,4.21,0,0,1,1.79,1.61,4.47,4.47,0,0,1,.59,2.27,4.48,4.48,0,0,1-.85,2.66,4.33,4.33,0,0,1-2.62,1.63l3.71,6.2Zm-5.33-7.95h2.72a2.85,2.85,0,0,0,2.08-.69,2.51,2.51,0,0,0,.7-1.85A2.39,2.39,0,0,0,261.19,4a2.93,2.93,0,0,0-2.09-.66h-2.72Z"/><path class="cls-1" d="M291.23,13.23H285l-1.08,3.06h-2.56l5.36-15h2.85l5.36,15h-2.58Zm-.69-2-2.44-7-2.45,7Z"/><path class="cls-1" d="M314.33,14.31h5.06v2h-7.52v-15h2.46Z"/><path class="cls-1" d="M161.75,50.44a8.39,8.39,0,0,1-3.51,3.33A12.43,12.43,0,0,1,152.35,55H148v10.3h-7V36.65h11.32a12.91,12.91,0,0,1,5.81,1.18,8.13,8.13,0,0,1,3.55,3.27,9.5,9.5,0,0,1,1.19,4.78A9.2,9.2,0,0,1,161.75,50.44Zm-6.94-1.9a4.1,4.1,0,0,0,0-5.32,4.22,4.22,0,0,0-3-.94H148v7.2h3.8A4.17,4.17,0,0,0,154.81,48.54Z"/><path class="cls-1" d="M178.43,59.94h9.15v5.4H171.44V36.65h7Z"/><path class="cls-1" d="M202.7,36.65V53.81a5.67,5.67,0,0,0,1.27,4,4.78,4.78,0,0,0,3.72,1.39,4.89,4.89,0,0,0,3.76-1.39,5.55,5.55,0,0,0,1.31-4V36.65h7V53.77a12.18,12.18,0,0,1-1.64,6.5,10.45,10.45,0,0,1-4.39,4,13.81,13.81,0,0,1-6.15,1.35,13.41,13.41,0,0,1-6.07-1.33,9.83,9.83,0,0,1-4.23-4,12.77,12.77,0,0,1-1.55-6.52V36.65Z"/><path class="cls-1" d="M262.05,36.65V65.34h-7V48.13l-6.42,17.21H243l-6.46-17.25V65.34h-7V36.65h8.26l8.05,19.86,8-19.86Z"/><path class="cls-1" d="M293.35,53.09a7.53,7.53,0,0,1-1,10.14,10.63,10.63,0,0,1-7,2.11H272V36.65h12.91a10.57,10.57,0,0,1,6.85,2,6.64,6.64,0,0,1,2.47,5.43,6.53,6.53,0,0,1-1.33,4.21,6.77,6.77,0,0,1-3.54,2.33A6.71,6.71,0,0,1,293.35,53.09ZM279,48.25h4.58a4.07,4.07,0,0,0,2.64-.75,2.74,2.74,0,0,0,.92-2.23,2.8,2.8,0,0,0-.92-2.25,4,4,0,0,0-2.64-.78H279Zm7.87,10.65a2.83,2.83,0,0,0,1-2.31,2.94,2.94,0,0,0-1-2.37,4.13,4.13,0,0,0-2.76-.86H279V59.7h5.15A4.14,4.14,0,0,0,286.83,58.9Z"/><path class="cls-1" d="M310.8,36.65V65.34h-7V36.65Z"/><path class="cls-1" d="M346.44,65.34h-7l-11.69-17.7v17.7h-7V36.65h7l11.69,17.77V36.65h7Z"/><path class="cls-1" d="M375.46,45.72a5.24,5.24,0,0,0-2.23-2.19,7.36,7.36,0,0,0-3.41-.75A7,7,0,0,0,364.38,45a8.48,8.48,0,0,0-2,6,8.55,8.55,0,0,0,2.14,6.19,7.8,7.8,0,0,0,5.91,2.23,7.13,7.13,0,0,0,4.35-1.31,7.39,7.39,0,0,0,2.6-3.76h-8.87V49.15h15.2v6.5a13.9,13.9,0,0,1-7.36,8.5,14.51,14.51,0,0,1-6.45,1.39,15.26,15.26,0,0,1-7.58-1.86,13.17,13.17,0,0,1-5.19-5.17A15.18,15.18,0,0,1,355.23,51a15.29,15.29,0,0,1,1.86-7.58,13.17,13.17,0,0,1,5.17-5.19,15.13,15.13,0,0,1,7.56-1.86,14.7,14.7,0,0,1,8.68,2.49,11.75,11.75,0,0,1,4.68,6.91Z"/><path class="cls-1" d="M161.51,96.09A8.33,8.33,0,0,1,158,99.42a12.31,12.31,0,0,1-5.89,1.27h-4.33V111h-7V82.3h11.32a12.91,12.91,0,0,1,5.81,1.18,8.13,8.13,0,0,1,3.55,3.27,9.5,9.5,0,0,1,1.19,4.78A9.2,9.2,0,0,1,161.51,96.09Zm-6.94-1.9a4.09,4.09,0,0,0,0-5.31,4.17,4.17,0,0,0-3-.94h-3.8v7.19h3.8A4.17,4.17,0,0,0,154.57,94.19Z"/><path class="cls-1" d="M185.83,111l-6-10.83h-1.67V111h-7V82.3h11.73a12.9,12.9,0,0,1,5.78,1.18,8.12,8.12,0,0,1,3.58,3.25,9.08,9.08,0,0,1,1.18,4.6,8.51,8.51,0,0,1-1.61,5.11,8.64,8.64,0,0,1-4.76,3.18L193.72,111Zm-7.64-15.78h4.33a4,4,0,0,0,2.88-.94,3.55,3.55,0,0,0,1-2.66,3.43,3.43,0,0,0-1-2.57,4,4,0,0,0-2.88-.94h-4.33Z"/><path class="cls-1" d="M208.9,109.39a14,14,0,0,1-5.35-5.25,15.46,15.46,0,0,1,0-15.14,14,14,0,0,1,5.35-5.23,15.58,15.58,0,0,1,14.84,0A13.75,13.75,0,0,1,229.05,89a15.67,15.67,0,0,1,0,15.14,13.94,13.94,0,0,1-5.31,5.25,15.54,15.54,0,0,1-14.82,0Zm12.92-6.78a9.94,9.94,0,0,0,0-12.12,7.87,7.87,0,0,0-11,0,10,10,0,0,0,0,12.16,7.82,7.82,0,0,0,11,0Z"/><path class="cls-1" d="M244.52,110.25a9.27,9.27,0,0,1-4-3A8.3,8.3,0,0,1,239,102.4h7.44a3.3,3.3,0,0,0,3.55,3.27,3.89,3.89,0,0,0,2.46-.71,2.42,2.42,0,0,0,.89-2,2.33,2.33,0,0,0-.71-1.76,5.84,5.84,0,0,0-1.76-1.15,27.5,27.5,0,0,0-3-1,32.46,32.46,0,0,1-4.54-1.71,8.41,8.41,0,0,1-3-2.54A7,7,0,0,1,239,90.43a7.52,7.52,0,0,1,2.9-6.27,11.9,11.9,0,0,1,7.56-2.27,12,12,0,0,1,7.65,2.27,8.09,8.09,0,0,1,3.1,6.31h-7.56a2.93,2.93,0,0,0-1-2.19,3.61,3.61,0,0,0-2.41-.79,3,3,0,0,0-2,.67,2.43,2.43,0,0,0-.78,1.94,2.4,2.4,0,0,0,1.31,2.17,20.67,20.67,0,0,0,4.08,1.67,38.44,38.44,0,0,1,4.52,1.8,8.6,8.6,0,0,1,3,2.49,6.68,6.68,0,0,1,1.27,4.21,8.29,8.29,0,0,1-1.25,4.46,8.74,8.74,0,0,1-3.61,3.19,12.39,12.39,0,0,1-5.6,1.18A14.77,14.77,0,0,1,244.52,110.25Z"/><path class="cls-1" d="M71.61,37.48h-25L34.1,59.13,46.6,80.78h25l12.5-21.65ZM59.11,69.64a10.51,10.51,0,1,1,10.5-10.51A10.51,10.51,0,0,1,59.11,69.64Z"/><path class="cls-2" d="M6.66,102.46s12.19,2.9,22.9,1.49c19.39-2.56,38.13-13.14,54-12.18s28.36,10.69,28.36,10.69S98,99.94,79.54,104.91c-13.84,3.73-29.95,11.37-45.81,9.77S11.31,107.07,6.66,102.46Z"/><path class="cls-3" d="M18.46,102a54.89,54.89,0,0,0,10.85-.19,117.22,117.22,0,0,0,18.76-4.44,39.81,39.81,0,1,1,39-66.59l13.65-13.65A59.1,59.1,0,1,0,18.46,102Z"/><path class="cls-3" d="M80.22,80.78H92.53A40.4,40.4,0,0,1,84.6,89.7a55.78,55.78,0,0,1,20.76,6.24,58.62,58.62,0,0,0,12.79-33.27c0-.4,0-.8.06-1.2H91.37Z"/><path class="cls-2" d="M6.66,102.25s12.19,2.9,22.9,1.48c19.39-2.56,38.13-13.13,54-12.17s28.36,10.69,28.36,10.69S98,99.73,79.54,104.69c-13.84,3.73-29.95,11.37-45.81,9.77S11.31,106.85,6.66,102.25Z"/><path class="cls-2" d="M113.8,48.33c-.61-7.77-7.92-18.32-18.47-22.51,4,12.68.28,16.9.16,23s4.47,10.12,9.66,9.71A9.43,9.43,0,0,0,113.8,48.33Zm-8.22,8.08a8.58,8.58,0,0,1-1.43.12A6.61,6.61,0,0,1,99,54.4a8.54,8.54,0,0,1-1.78-6.71,1,1,0,0,1,1.92.22,6.72,6.72,0,0,0,1.31,5.22,5.21,5.21,0,0,0,4.78,1.38,1,1,0,1,1,.31,1.9Z"/><path class="cls-2" d="M53.79,95.59c9.42-3,18.37-5.82,26.79-6a34.92,34.92,0,0,0,8.18-6.87s-9.3,4.37-14.5,4.72c-12.54.85-16.94-6.65-29.78-4.72A23.43,23.43,0,0,0,34,87.44a37.77,37.77,0,0,0,17.68,8.82Z"/></g></g></svg>