<svg width="79" height="78" viewBox="0 0 79 78" fill="none" xmlns="http://www.w3.org/2000/svg">
<path d="M19.905 7.12125C19.3887 5.985 18.2487 5.25 17 5.25C15.7512 5.25 14.6112 5.985 14.095 7.12125L9.5 18.7625V20.25C9.5 24.3862 12.8637 27.75 17 27.75C21.1362 27.75 24.5 24.3862 24.5 20.1888C24.5 19.2425 24.3238 18.3162 23.9775 17.435L19.905 7.12125ZM17 25.25C14.2425 25.25 12 23.0075 12 20.25V19.2375L16.3813 8.1325C16.6175 7.66 17.435 7.72625 17.605 8.09625L21.6513 18.3512C21.8825 18.94 22 19.5575 22 20.25C22 23.0075 19.7575 25.25 17 25.25Z" fill="#0B4D9D"/>
<path d="M78.25 40.25V37.75C78.25 36.3713 77.1288 35.25 75.75 35.25V19C75.75 14.1763 71.8238 10.25 67 10.25H60.75C60.75 8.87125 59.6287 7.75 58.25 7.75H55.75C54.3713 7.75 53.25 8.87125 53.25 10.25H45.75C45.75 8.87125 44.6287 7.75 43.25 7.75H40.75C39.3713 7.75 38.25 8.87125 38.25 10.25H31.9963C29.5425 4.38375 23.7463 0.25 17 0.25C8.04 0.25 0.75 7.54 0.75 16.5C0.75 25.46 8.04 32.75 17 32.75C23.7463 32.75 29.5425 28.6162 31.9963 22.75H38.25C38.25 24.1287 39.3713 25.25 40.75 25.25H43.25C44.6287 25.25 45.75 24.1287 45.75 22.75H53.25C53.25 24.1287 54.3713 25.25 55.75 25.25H58.25C59.6287 25.25 60.75 24.1287 60.75 22.75H63.25V35.25C61.8713 35.25 60.75 36.3713 60.75 37.75V40.25C60.75 41.6287 61.8713 42.75 63.25 42.75V45.25H58.25C58.25 43.8713 57.1287 42.75 55.75 42.75H53.25C51.8713 42.75 50.75 43.8713 50.75 45.25H44.5V40.25H45.75C47.8175 40.25 49.5 38.5675 49.5 36.5C49.5 34.4325 47.8175 32.75 45.75 32.75H44.5C44.5 29.9925 42.2575 27.75 39.5 27.75C36.7425 27.75 34.5 29.9925 34.5 32.75H33.25C31.1825 32.75 29.5 34.4325 29.5 36.5C29.5 38.5675 31.1825 40.25 33.25 40.25H34.5V45.25H28.25C28.25 43.8713 27.1287 42.75 25.75 42.75H23.25C21.8713 42.75 20.75 43.8713 20.75 45.25H14.5C9.67625 45.25 5.75 49.1763 5.75 54V62.75C4.37125 62.75 3.25 63.8713 3.25 65.25V67.75C3.25 69.1288 4.37125 70.25 5.75 70.25V77.75H18.25V70.25C19.6287 70.25 20.75 69.1288 20.75 67.75V65.25C20.75 63.8713 19.6287 62.75 18.25 62.75V57.75H20.75C20.75 59.1287 21.8713 60.25 23.25 60.25H25.75C27.1287 60.25 28.25 59.1287 28.25 57.75H50.75C50.75 59.1287 51.8713 60.25 53.25 60.25H55.75C57.1287 60.25 58.25 59.1287 58.25 57.75H63.25V62.75C61.8713 62.75 60.75 63.8713 60.75 65.25V67.75C60.75 69.1288 61.8713 70.25 63.25 70.25V77.75H75.75V70.25C77.1288 70.25 78.25 69.1288 78.25 67.75V65.25C78.25 63.8713 77.1288 62.75 75.75 62.75V42.75C77.1288 42.75 78.25 41.6287 78.25 40.25ZM17 30.25C9.41875 30.25 3.25 24.0812 3.25 16.5C3.25 8.91875 9.41875 2.75 17 2.75C24.5812 2.75 30.75 8.91875 30.75 16.5C30.75 24.0812 24.5812 30.25 17 30.25ZM32.7962 20.25C33.0825 19.0438 33.25 17.7925 33.25 16.5C33.25 15.2075 33.0825 13.9563 32.7962 12.75H38.25V20.25H32.7962ZM40.75 22.75V10.25H43.25L43.2525 22.75H40.75ZM45.75 20.25V12.75H53.25V20.25H45.75ZM15.75 75.25H8.25V70.25H15.75V75.25ZM18.2525 67.75H5.75V65.25H18.25L18.2525 67.75ZM18.25 55.25C16.8713 55.25 15.75 56.3713 15.75 57.75V62.75H8.25V54C8.25 50.5537 11.0538 47.75 14.5 47.75H20.75V55.25H18.25ZM39.5 30.25C40.8787 30.25 42 31.3713 42 32.75H37C37 31.3713 38.1213 30.25 39.5 30.25ZM32 36.5C32 35.81 32.56 35.25 33.25 35.25H45.75C46.44 35.25 47 35.81 47 36.5C47 37.19 46.44 37.75 45.75 37.75H33.25C32.56 37.75 32 37.19 32 36.5ZM37 40.25H42V45.25H37V40.25ZM23.25 57.75V45.25H25.75L25.7525 57.75H23.25ZM28.25 55.25V47.75H50.75V55.25H28.25ZM55.75 22.75V10.25H58.25L58.2525 22.75H55.75ZM63.25 20.25H60.75V12.75H67C70.4463 12.75 73.25 15.5538 73.25 19V35.25H65.75V22.75C65.75 21.3713 64.6287 20.25 63.25 20.25ZM63.25 37.75H75.75L75.7525 40.25H63.25V37.75ZM53.25 57.75V45.25H55.75L55.7525 57.75H53.25ZM58.25 55.25V47.75H63.25V55.25H58.25ZM73.25 75.25H65.75V70.25H73.25V75.25ZM75.7525 67.75H63.25V65.25H75.75L75.7525 67.75ZM73.25 62.75H65.75V42.75H73.25V62.75Z" fill="#0B4D9D"/>
<path d="M68.25 47.75H70.75V50.25H68.25V47.75Z" fill="#0B4D9D"/>
<path d="M68.25 57.75H70.75V60.25H68.25V57.75Z" fill="#0B4D9D"/>
<path d="M68.25 52.75H70.75V55.25H68.25V52.75Z" fill="#0B4D9D"/>
<path d="M40.75 50.25H43.25V52.75H40.75V50.25Z" fill="#0B4D9D"/>
<path d="M30.75 50.25H33.25V52.75H30.75V50.25Z" fill="#0B4D9D"/>
<path d="M35.75 50.25H38.25V52.75H35.75V50.25Z" fill="#0B4D9D"/>
<path d="M68.25 30.25H70.75V32.75H68.25V30.25Z" fill="#0B4D9D"/>
<path d="M68.25 20.25H70.75V22.75H68.25V20.25Z" fill="#0B4D9D"/>
<path d="M68.25 25.25H70.75V27.75H68.25V25.25Z" fill="#0B4D9D"/>
</svg>
