<svg xmlns="http://www.w3.org/2000/svg" version="1.1" xmlns:xlink="http://www.w3.org/1999/xlink" xmlns:svgjs="http://svgjs.com/svgjs" width="512" height="512" x="0" y="0" viewBox="0 0 60 60" style="enable-background:new 0 0 512 512" xml:space="preserve" class=""><g><g id="Page-1" fill="none" fill-rule="evenodd"><g id="056---Bath-Plug" fill="rgb(0,0,0)" fill-rule="nonzero"><path id="Shape" d="m48.066 36.89c-.4340316.3386631-.5127013.9644448-.176 1.4 1.3295649 1.6095249 2.0734738 3.6226622 2.11 5.71 0 7.72-10.767 14-24 14s-24-6.28-24-14 10.767-14 24-14h.23c.5522847-.0027614.9977614-.4527153.995-1.005s-.4527153-.9977614-1.005-.995h-.22c-14.337 0-26 7.178-26 16s11.663 16 26 16 26-7.178 26-16c-.0336363-2.5311721-.9256526-4.9759313-2.53-6.934-.1627554-.2096455-.4021756-.3459913-.665521-.3790033-.2633453-.0330119-.529012.0400182-.738479.2030033z" fill="#0b4d9d" data-original="#000000" class=""></path><path id="Shape" d="m9 43c0 5.607 7.468 10 17 10s17-4.393 17-10-7.468-10-17-10-17 4.393-17 10zm22-.5c0 1.183-2.054 2.5-5 2.5s-5-1.317-5-2.5 2.054-2.5 5-2.5 5 1.317 5 2.5zm-10.481-5.505c-.6417949-.4207083-1.3617955-.7077562-2.117-.844.7410791-.2390114 1.4940981-.4392824 2.256-.6-.1335331.2979646-.206286.6195732-.214.946.00751.1681666.0326477.3350807.075.498zm-3.519 1.005c1.717 0 3 .792 3 1.5s-1.283 1.5-3 1.5-3-.792-3-1.5 1.283-1.5 3-1.5zm3 7.5c0 .708-1.283 1.5-3 1.5s-3-.792-3-1.5 1.283-1.5 3-1.5 3 .792 3 1.5zm-3 3.5c1.0829321.0126445 2.1515595-.2480635 3.107-.758-.0698815.2466441-.1058784.5016497-.107.758.0038775.4858837.1293603.9630624.365 1.388-1.4740167-.3222319-2.9072901-.8085989-4.273-1.45.301121.0391445.6043529.0598498.908.062zm5 0c0-.944 1.711-2 4-2s4 1.056 4 2-1.711 2-4 2-4-1.056-4-2zm9.893-.758c.9554405.5099365 2.0240679.7706445 3.107.758.3036471-.0021502.606879-.0228555.908-.062-1.3657601.6412764-2.7990193 1.1276386-4.273 1.45.2356397-.4249376.3611225-.9021163.365-1.388-.0011216-.2563503-.0371185-.5113559-.107-.758zm3.107-1.242c-1.717 0-3-.792-3-1.5s1.283-1.5 3-1.5 3 .792 3 1.5-1.283 1.5-3 1.5zm-3-7.5c0-.708 1.283-1.5 3-1.5s3 .792 3 1.5-1.283 1.5-3 1.5-3-.792-3-1.5zm-.519-2.505c.0421456-.1619429.0672816-.3278408.075-.495-.007714-.3264268-.0804669-.6480354-.214-.946.7619019.1607176 1.5149209.3609886 2.256.6-.754982.1353274-1.4749684.4213494-2.117.841zm-1.925-.495c0 .6-1.418 1.5-3.556 1.5s-3.556-.9-3.556-1.5 1.418-1.5 3.556-1.5 3.556.9 3.556 1.5zm-18.556 6.5c.0289557-1.0632628.4094555-2.086955 1.082-2.911.3481207 1.1335201 1.2199004 2.0306012 2.343 2.411-1.3450781.4110215-2.3050749 1.5986465-2.425 3 .0083672.1233785.0254093.246015.051.367-.6530762-.8157832-1.0220896-1.8224068-1.051-2.867zm30 0c-.0284737 1.0446769-.3975365 2.0514352-1.051 2.867.0255907-.120985.0426328-.2436215.051-.367-.1199251-1.4013535-1.0799219-2.5889785-2.425-3 1.1230996-.3803988 1.9948793-1.2774799 2.343-2.411.6724119.824121 1.0528943 1.8477662 1.082 2.911z" fill="#0b4d9d" data-original="#000000" class=""></path><path id="Shape" d="m57 0c-6.4357278.03032818-12.3110075 3.66659667-15.209 9.413-1.6888838.01638617-3.3238348.5968026-4.645 1.649-7.5-2.77-12.836-2.725-14.308.167-.1752577.3480241-.2850809.725287-.324 1.113-.0455972.1108923-.0706709.2291454-.074.349-.02 2.474-.04 5.177-.04 6.719.0025292.0646099.0085379.1290367.018.193.3 1.967 2.307 6.031 12.4 11.139 4.517 2.287 9.743 4.1 13.329 4.1 1.1091463.0688152 2.2124648-.2067524 3.159-.789.037647-.0275634.0733946-.0576315.107-.09l5.117-3.843c.0294379-.028724.0568377-.0594651.082-.092.4325151-.3041472.7826736-.7110046 1.019-1.184 1.469-2.884-1.644-7.214-8.331-11.637.0831586-1.9859251-.6291224-3.9230126-1.979-5.382 1.8887863-3.59361052 5.6192755-5.83868744 9.679-5.825 1.6568542 0 3-1.34314575 3-3s-1.3431458-3-3-3zm-16.364 12.111c-.1521842.4981969-.1697802 1.0278004-.051 1.535-.8162115.305149-1.488893.9043563-1.886 1.68l-.228.451-1.781-.893c0-.007.046-.1.05-.1.067-.138.123-.258.171-.347.2828783-.5654989.6641586-1.07613 1.126-1.508.7800477-.73434 1.7559922-1.2271746 2.81-1.419-.075.203-.147.41-.211.601zm15.212 15.828c-.512 1.015-2.447 1.179-5.444.465-4.152774-1.1555829-8.1661449-2.7635469-11.968-4.795-1.552-.792-2.876-1.5-4.048-2.176-.4788309-.2761424-1.0908576-.1118309-1.367.367s-.1118309 1.0908576.367 1.367c1.2.689 2.553 1.417 4.137 2.226 3.9443683 2.1021375 8.1076547 3.7647693 12.415 4.958.7898566.1912183 1.5916593.3291952 2.4.413l-2.22 1.667c-.02.015-.04.031-.059.048-1.613 1-7.471-.043-14.339-3.522-9.834-4.977-11.139-8.7-11.321-9.633 0-.712.005-1.665.012-2.718 1.189 1.2711832 2.512791 2.4092142 3.948 3.394.2913501.2070354.6710207.2429106.9959937.0941117s.5458771-.4596657.5795-.8155-.1251436-.7025763-.4164937-.9096117c-3.708-2.632-5.539-4.963-4.9-6.23.722-1.411 4.465-1.788 11.049.516-.18926.2628684-.3606459.5381549-.513.824-.03.051-.119.231-.248.5-.497894.984786-.1041002 2.1867519.88 2.686l1.776.9c.2786959.1421634.5871394.2161898.9.216.7531482.001128 1.4430712-.4209425 1.785-1.092l.231-.454c.2515774-.4813551.7450029-.7878306 1.288-.8.2509967.1849103.5298153.3287078.826.426.1063792.031804.2145744.0571831.324.076.3995966.5022499.4721247 1.1904871.186 1.765l-.184.349c-.4804006.9872646-.0796981 2.1773511.9 2.673l1.778.9c.4684881.2424378 1.014208.2884313 1.5166648.1278252.5024569-.160606.9203235-.5146018 1.1613352-.9838252.116-.218.209-.406.238-.463.1548458-.3085461.2884886-.6272843.4-.954 5.745 3.949 7.652 7.179 6.934 8.588zm-8.573-10.329c-.0732152.6255994-.259222 1.2327471-.549 1.792l-.225.436-1.8-.879.179-.339c.4758785-.9488174.5278325-2.0547484.143-3.044.6343474-.372215 1.1090079-.9654516 1.333-1.666l.023-.065c.7458683 1.1045941 1.0643459 2.4428399.896 3.765zm9.725-13.61c-9.458 0-12.424 8.917-12.546 9.3-.1727088.520805-.7286748.8094285-1.254.651-.5233004-.1657222-.815196-.7222877-.654-1.247 1.154-3.699 5.654-10.704 14.454-10.704.5522847 0 1 .44771525 1 1s-.4477153 1-1 1z" fill="#0b4d9d" data-original="#000000" class=""></path></g></g></g></svg>