<svg xmlns="http://www.w3.org/2000/svg" version="1.1" xmlns:xlink="http://www.w3.org/1999/xlink" xmlns:svgjs="http://svgjs.com/svgjs" width="512" height="512" x="0" y="0" viewBox="0 0 64 64" style="enable-background:new 0 0 512 512" xml:space="preserve"><g><g id="Grass_Sprinkler" data-name="Grass Sprinkler"><path d="m45.2 48.687a13.888 13.888 0 0 1 5.326-5.215 16.013 16.013 0 0 0 -2.128 14.879 1 1 0 0 0 1.888-.661 14.117 14.117 0 0 1 4.7-15.993 1.119 1.119 0 0 0 -1.055-1.935c-4.591 1.579-8.62 4.2-10.772 8.551-.4-3.513.921-5.839 2.913-8.417a1.022 1.022 0 0 0 -1.283-1.577 18.718 18.718 0 0 0 -7.079 7.87 16.959 16.959 0 0 1 2.787-8.676 1.118 1.118 0 0 0 -1.779-1.347 30.38 30.38 0 0 0 -2.718 3.677v-13.843h3.5a2.5 2.5 0 0 0 2.5-2.5v-3a2.5 2.5 0 0 0 -2.5-2.5h-3.5v-3h4a2 2 0 0 0 2-2v-.625a5.374 5.374 0 0 0 -5.375-5.375h-9.25a5.374 5.374 0 0 0 -5.375 5.375v.625a2 2 0 0 0 2 2h4v3h-3.5a2.5 2.5 0 0 0 -2.5 2.5v3a2.5 2.5 0 0 0 2.5 2.5h3.5v12.841c-.537-.7-1.063-1.313-1.549-1.836a1.118 1.118 0 0 0 -1.783 1.326 22.885 22.885 0 0 1 1.93 4.227 10.669 10.669 0 0 0 -2.755-2.413 1.021 1.021 0 0 0 -1.388 1.482 13.979 13.979 0 0 1 1.7 2.983c-2.292-3.373-6.077-6.049-11.346-7.95a1.12 1.12 0 0 0 -.914 2.037 17.069 17.069 0 0 1 8.1 14.641c-1.314-4.688-5.444-8.04-9.764-10.28a1.118 1.118 0 0 0 -1.357 1.726 20.759 20.759 0 0 1 5.07 14.193 1 1 0 0 0 2 .05 22.943 22.943 0 0 0 -3-11.955c5.665 4.255 5.341 8.184 5.773 10.76a1.248 1.248 0 0 0 2.414.193 17.8 17.8 0 0 0 -3.345-16.766c6.208 3.984 7.414 8.856 6.985 15.741-.105 1.691-.181 2.912.995 3.106 2.48.4 4.824-8.579 3.516-15.27 1.992 4.412 2.081 7.447 1.617 11.99-.1 1-.5 3.4 1.134 3.294 1.18-.016 1.231-1.14 1.323-3.178a31.164 31.164 0 0 1 2.464-12.442c-.9 7.227 3.058 16.236 6.086 15.6 2.67-.579.218-5.874 3.294-11.413zm-21.2-36.312a3.375 3.375 0 0 1 3.375-3.375h9.242a3.383 3.383 0 0 1 3.383 3.375.619.619 0 0 1 -.62.621h-14.76a.621.621 0 0 1 -.62-.62zm6 2.625h4v3h-4zm-6 8.5v-3a.5.5 0 0 1 .5-.5h15a.5.5 0 0 1 .5.5v3a.5.5 0 0 1 -.5.5h-15a.5.5 0 0 1 -.5-.5zm2.863 31.663a24.576 24.576 0 0 0 -.156-3.5 13.706 13.706 0 0 0 .044-5.37c.312.5.612 1.05.9 1.634l.011.041a22.639 22.639 0 0 1 -.799 7.195zm5.648-7.163a25.8 25.8 0 0 0 -2.511-6.1v-15.9h4v17.634a28.141 28.141 0 0 0 -1.489 4.366zm8.771 9.955a15.955 15.955 0 0 1 -3.172-7.115 18.07 18.07 0 0 1 3.417-6.909 12.108 12.108 0 0 0 .434 7.774 41.854 41.854 0 0 0 -.679 6.25z" fill="#0b4d9d" data-original="#000000"></path><path d="m57 17h-2a1 1 0 0 1 0-2h2a1 1 0 0 1 0 2zm-5 0h-2a1 1 0 0 1 0-2h2a1 1 0 0 1 0 2zm-5 0h-2a1 1 0 0 1 0-2h2a1 1 0 0 1 0 2z" fill="#0b4d9d" data-original="#000000"></path><path d="m44.553 10.105 1.789-.894a1 1 0 0 1 .894 1.789l-1.789.895a1 1 0 0 1 -.894-1.79zm4.472-2.236 1.789-.894a1 1 0 0 1 .894 1.789l-1.789.894a1 1 0 0 1 -.894-1.789zm4.475-2.235 1.789-.9a1 1 0 0 1 .894 1.789l-1.788.9a1 1 0 0 1 -.895-1.789z" fill="#0b4d9d" data-original="#000000"></path><path d="m55.553 27.4-1.789-.9a1 1 0 0 1 .894-1.789l1.789.894a1 1 0 0 1 -.894 1.795zm-4.472-2.237-1.789-.894a1 1 0 0 1 .894-1.789l1.789.894a1 1 0 0 1 -.894 1.784zm-4.473-2.235-1.788-.895a1 1 0 0 1 .894-1.789l1.789.895a1 1 0 0 1 -.895 1.784z" fill="#0b4d9d" data-original="#000000"></path><path d="m19 17h-2a1 1 0 0 1 0-2h2a1 1 0 0 1 0 2zm-5 0h-2a1 1 0 0 1 0-2h2a1 1 0 0 1 0 2zm-5 0h-2a1 1 0 0 1 0-2h2a1 1 0 0 1 0 2z" fill="#0b4d9d" data-original="#000000"></path><path d="m18.553 11.9-1.789-.9a1 1 0 0 1 .894-1.789l1.789.894a1 1 0 0 1 -.894 1.795zm-4.472-2.242-1.789-.894a1 1 0 0 1 .894-1.789l1.789.894a1 1 0 0 1 -.894 1.789zm-4.473-2.235-1.788-.9a1 1 0 0 1 .894-1.789l1.789.9a1 1 0 0 1 -.895 1.789z" fill="#0b4d9d" data-original="#000000"></path><path d="m7.553 25.605 1.789-.894a1 1 0 0 1 .894 1.789l-1.789.9a1 1 0 0 1 -.894-1.795zm4.472-2.236 1.789-.894a1 1 0 0 1 .894 1.789l-1.789.894a1 1 0 0 1 -.894-1.789zm4.475-2.235 1.789-.895a1 1 0 0 1 .894 1.789l-1.788.895a1 1 0 0 1 -.895-1.789z" fill="#0b4d9d" data-original="#000000"></path></g></g></svg>