<svg xmlns="http://www.w3.org/2000/svg" version="1.1" xmlns:xlink="http://www.w3.org/1999/xlink" xmlns:svgjs="http://svgjs.com/svgjs" width="512" height="512" x="0" y="0" viewBox="0 0 682.66534 682.66669" style="enable-background:new 0 0 512 512" xml:space="preserve"><g><defs id="defs3175"><clipPath clipPathUnits="userSpaceOnUse" id="clipPath3185"><path d="M 0,512 H 511.999 V 0 H 0 Z" id="path3183" fill="#0b4d9d" data-original="#000000"></path></clipPath></defs><g id="g3177" transform="matrix(1.3333333,0,0,-1.3333333,0,682.66667)"><g id="g3179"><g id="g3181" clip-path="url(#clipPath3185)"><g id="g3187" transform="translate(405.6562,189.6738)"><path d="m 0,0 h -299.313 c -3.601,0 -6.519,-2.919 -6.519,-6.519 v -3.926 c 0,-15.436 12.63,-28.066 28.066,-28.066 h 256.218 c 15.437,0 28.067,12.63 28.067,28.066 v 3.926 C 6.519,-2.919 3.601,0 0,0 Z" style="stroke-width:15;stroke-linecap:round;stroke-linejoin:round;stroke-miterlimit:10;stroke-dasharray:none;stroke-opacity:1" id="path3189" fill="none" stroke="#0b4d9d" stroke-width="15" stroke-linecap="round" stroke-linejoin="round" stroke-miterlimit="10" stroke-dasharray="none" stroke-opacity="" data-original="#000000"></path></g><g id="g3191" transform="translate(353.3427,246.6328)"><path d="m 0,0 c 0,-8.479 -6.873,-15.353 -15.353,-15.353 -8.478,0 -15.352,6.874 -15.352,15.353 0,8.479 6.874,15.352 15.352,15.352 C -6.873,15.352 0,8.479 0,0 Z" style="stroke-width:15;stroke-linecap:round;stroke-linejoin:round;stroke-miterlimit:10;stroke-dasharray:none;stroke-opacity:1" id="path3193" fill="none" stroke="#0b4d9d" stroke-width="15" stroke-linecap="round" stroke-linejoin="round" stroke-miterlimit="10" stroke-dasharray="none" stroke-opacity="" data-original="#000000"></path></g><g id="g3195" transform="translate(189.3608,246.6328)"><path d="m 0,0 c 0,-8.479 -6.874,-15.353 -15.352,-15.353 -8.479,0 -15.353,6.874 -15.353,15.353 0,8.479 6.874,15.352 15.353,15.352 C -6.874,15.352 0,8.479 0,0 Z" style="stroke-width:15;stroke-linecap:round;stroke-linejoin:round;stroke-miterlimit:10;stroke-dasharray:none;stroke-opacity:1" id="path3197" fill="none" stroke="#0b4d9d" stroke-width="15" stroke-linecap="round" stroke-linejoin="round" stroke-miterlimit="10" stroke-dasharray="none" stroke-opacity="" data-original="#000000"></path></g><g id="g3199" transform="translate(305.3476,311.333)"><path d="m 0,0 c 0,-27.254 -22.094,-49.349 -49.348,-49.349 -27.255,0 -49.348,22.095 -49.348,49.349 0,27.254 22.093,49.349 49.348,49.349 C -22.094,49.349 0,27.254 0,0 Z" style="stroke-width:15;stroke-linecap:round;stroke-linejoin:round;stroke-miterlimit:10;stroke-dasharray:none;stroke-opacity:1" id="path3201" fill="none" stroke="#0b4d9d" stroke-width="15" stroke-linecap="round" stroke-linejoin="round" stroke-miterlimit="10" stroke-dasharray="none" stroke-opacity="" data-original="#000000"></path></g><g id="g3203" transform="translate(269.2666,311.333)"><path d="m 0,0 c 0,-7.327 -5.939,-13.267 -13.267,-13.267 -7.327,0 -13.267,5.94 -13.267,13.267 0,7.327 5.94,13.267 13.267,13.267 C -5.939,13.267 0,7.327 0,0 Z" style="stroke-width:15;stroke-linecap:round;stroke-linejoin:round;stroke-miterlimit:10;stroke-dasharray:none;stroke-opacity:1" id="path3205" fill="none" stroke="#0b4d9d" stroke-width="15" stroke-linecap="round" stroke-linejoin="round" stroke-miterlimit="10" stroke-dasharray="none" stroke-opacity="" data-original="#000000"></path></g><g id="g3207" transform="translate(256,324.5996)"><path d="M 0,0 V 14.576" style="stroke-width:15;stroke-linecap:round;stroke-linejoin:round;stroke-miterlimit:10;stroke-dasharray:none;stroke-opacity:1" id="path3209" fill="none" stroke="#0b4d9d" stroke-width="15" stroke-linecap="round" stroke-linejoin="round" stroke-miterlimit="10" stroke-dasharray="none" stroke-opacity="" data-original="#000000"></path></g><g id="g3211" transform="translate(327.9765,59.542)"><path d="m 0,0 h -24.281 c -4.16,0 -7.531,-3.371 -7.531,-7.531 V -44.51 c 0,-4.16 3.371,-7.531 7.531,-7.531 H 0 c 4.159,0 7.531,3.371 7.531,7.531 V -7.531 C 7.531,-3.371 4.159,0 0,0 Z" style="stroke-width:15;stroke-linecap:round;stroke-linejoin:round;stroke-miterlimit:10;stroke-dasharray:none;stroke-opacity:1" id="path3213" fill="none" stroke="#0b4d9d" stroke-width="15" stroke-linecap="round" stroke-linejoin="round" stroke-miterlimit="10" stroke-dasharray="none" stroke-opacity="" data-original="#000000"></path></g><g id="g3215" transform="translate(208.3042,59.542)"><path d="m 0,0 h -24.282 c -4.159,0 -7.531,-3.371 -7.531,-7.531 V -44.51 c 0,-4.16 3.372,-7.531 7.531,-7.531 H 0 c 4.159,0 7.531,3.371 7.531,7.531 V -7.531 C 7.531,-3.371 4.159,0 0,0 Z" style="stroke-width:15;stroke-linecap:round;stroke-linejoin:round;stroke-miterlimit:10;stroke-dasharray:none;stroke-opacity:1" id="path3217" fill="none" stroke="#0b4d9d" stroke-width="15" stroke-linecap="round" stroke-linejoin="round" stroke-miterlimit="10" stroke-dasharray="none" stroke-opacity="" data-original="#000000"></path></g><g id="g3219" transform="translate(303.6943,59.542)"><path d="m 0,0 h 24.282 c 0.501,0 0.99,-0.051 1.464,-0.145 V 91.621 H -1.464 V -0.145 C -0.99,-0.051 -0.501,0 0,0 Z" style="stroke-width:15;stroke-linecap:round;stroke-linejoin:round;stroke-miterlimit:10;stroke-dasharray:none;stroke-opacity:1" id="path3221" fill="none" stroke="#0b4d9d" stroke-width="15" stroke-linecap="round" stroke-linejoin="round" stroke-miterlimit="10" stroke-dasharray="none" stroke-opacity="" data-original="#000000"></path></g><g id="g3223" transform="translate(184.0224,59.542)"><path d="m 0,0 h 24.282 c 0.501,0 0.99,-0.051 1.464,-0.145 V 91.621 H -1.464 V -0.145 C -0.99,-0.051 -0.501,0 0,0 Z" style="stroke-width:15;stroke-linecap:round;stroke-linejoin:round;stroke-miterlimit:10;stroke-dasharray:none;stroke-opacity:1" id="path3225" fill="none" stroke="#0b4d9d" stroke-width="15" stroke-linecap="round" stroke-linejoin="round" stroke-miterlimit="10" stroke-dasharray="none" stroke-opacity="" data-original="#000000"></path></g><g id="g3227" transform="translate(384.1084,151.1631)"><path d="m 0,0 h -54.668 v -68.521 h 37.77 c 13.966,0 25.394,11.427 25.394,25.394 V 1.326 C 5.813,0.468 2.959,0 0,0 Z" style="stroke-width:15;stroke-linecap:round;stroke-linejoin:round;stroke-miterlimit:10;stroke-dasharray:none;stroke-opacity:1" id="path3229" fill="none" stroke="#0b4d9d" stroke-width="15" stroke-linecap="round" stroke-linejoin="round" stroke-miterlimit="10" stroke-dasharray="none" stroke-opacity="" data-original="#000000"></path></g><path d="M 302.23,151.163 H 209.768 V 82.642 h 92.462 z" style="stroke-width:15;stroke-linecap:round;stroke-linejoin:round;stroke-miterlimit:10;stroke-dasharray:none;stroke-opacity:1" id="path3231" fill="none" stroke="#0b4d9d" stroke-width="15" stroke-linecap="round" stroke-linejoin="round" stroke-miterlimit="10" stroke-dasharray="none" stroke-opacity="" data-original="#000000"></path><g id="g3233" transform="translate(182.5586,151.1631)"><path d="m 0,0 h -54.668 c -2.959,0 -5.813,0.468 -8.497,1.326 v -44.453 c 0,-13.967 11.429,-25.394 25.396,-25.394 H 0 Z" style="stroke-width:15;stroke-linecap:round;stroke-linejoin:round;stroke-miterlimit:10;stroke-dasharray:none;stroke-opacity:1" id="path3235" fill="none" stroke="#0b4d9d" stroke-width="15" stroke-linecap="round" stroke-linejoin="round" stroke-miterlimit="10" stroke-dasharray="none" stroke-opacity="" data-original="#000000"></path></g><g id="g3237" transform="translate(273.499,460.2636)"><path d="m 0,0 h 133.472 v 16.17 c 0,15.435 -12.63,28.065 -28.067,28.065 h -245.809 c -15.437,0 -28.067,-12.63 -28.067,-28.065 V 0 H -35" style="stroke-width:15;stroke-linecap:round;stroke-linejoin:round;stroke-miterlimit:10;stroke-dasharray:none;stroke-opacity:1" id="path3239" fill="none" stroke="#0b4d9d" stroke-width="15" stroke-linecap="round" stroke-linejoin="round" stroke-miterlimit="10" stroke-dasharray="none" stroke-opacity="" data-original="#000000"></path></g><g id="g3241" transform="translate(406.9707,328.833)"><path d="m 0,0 v 147.601 c 0,15.435 -12.63,28.065 -28.066,28.065 h -245.81 c -15.436,0 -28.066,-12.63 -28.066,-28.065 v -286.893 c 0.424,0.087 0.864,0.133 1.314,0.133 H -1.314 c 0.45,0 0.889,-0.046 1.314,-0.133 L 0,-35" style="stroke-width:15;stroke-linecap:round;stroke-linejoin:round;stroke-miterlimit:10;stroke-dasharray:none;stroke-opacity:1" id="path3243" fill="none" stroke="#0b4d9d" stroke-width="15" stroke-linecap="round" stroke-linejoin="round" stroke-miterlimit="10" stroke-dasharray="none" stroke-opacity="" data-original="#000000"></path></g></g></g></g></g></svg>